<svg viewBox="0 0 80 80" fill="none" xmlns="http://www.w3.org/2000/svg">
  <defs>
    <linearGradient id="forgeGradient" x1="0%" y1="0%" x2="100%" y2="100%">
      <stop offset="0%" style="stop-color:#f97316"/>
      <stop offset="100%" style="stop-color:#f59e0b"/>
    </linearGradient>
    <filter id="glow">
      <feGaussianBlur stdDeviation="2" result="coloredBlur"/>
      <feMerge>
        <feMergeNode in="coloredBlur"/>
        <feMergeNode in="SourceGraphic"/>
      </feMerge>
    </filter>
  </defs>
  
  <!-- Background circle -->
  <circle cx="40" cy="40" r="38" fill="url(#forgeGradient)" opacity="0.1"/>
  <circle cx="40" cy="40" r="38" stroke="url(#forgeGradient)" stroke-width="2" fill="none" opacity="0.3"/>
  
  <!-- Anvil base -->
  <rect x="15" y="55" width="50" height="8" rx="2" fill="url(#forgeGradient)"/>
  
  <!-- Anvil body -->
  <path d="M20 45 L60 45 L65 55 L15 55 L20 45 Z" fill="url(#forgeGradient)" opacity="0.9"/>
  
  <!-- Anvil top/working surface -->
  <rect x="25" y="35" width="30" height="10" rx="2" fill="url(#forgeGradient)"/>
  
  <!-- Horn (left side) -->
  <path d="M25 40 L15 42 L15 38 L25 40 Z" fill="url(#forgeGradient)" opacity="0.8"/>
  
  <!-- Hammer spark/flame -->
  <path d="M40 15 L44 25 L40 22 L36 25 L40 15 Z" fill="url(#forgeGradient)" filter="url(#glow)"/>
  
  <!-- Sparks -->
  <circle cx="30" cy="20" r="3" fill="#f97316" opacity="0.8"/>
  <circle cx="50" cy="22" r="2.5" fill="#f59e0b" opacity="0.7"/>
  <circle cx="35" cy="28" r="2" fill="#fbbf24" opacity="0.6"/>
  <circle cx="48" cy="30" r="1.5" fill="#f97316" opacity="0.5"/>
  <circle cx="40" cy="32" r="2" fill="#fbbf24" opacity="0.7"/>
</svg>
